<svg xmlns="http://www.w3.org/2000/svg" width="1200" height="2300" viewBox="0 0 1200 2300" role="img" aria-labelledby="title desc">
  <title id="title">Renato Grasso — single-buffer terminal profile</title>
  <desc id="desc">One continuous terminal session: boot, whoami, stack, focus, telemetry, neofetch, languages.</desc>

  <defs>
    <linearGradient id="term-bg" x1="0" y1="0" x2="1" y2="1">
      <stop offset="0%" stop-color="#05070a"/>
      <stop offset="48%" stop-color="#08110d"/>
      <stop offset="100%" stop-color="#05070a"/>
    </linearGradient>
    <linearGradient id="pulse-line" x1="0" y1="0" x2="1" y2="0">
      <stop offset="0%" stop-color="#0f172a" stop-opacity="0"/>
      <stop offset="45%" stop-color="#34d399" stop-opacity="0.85"/>
      <stop offset="100%" stop-color="#0f172a" stop-opacity="0"/>
    </linearGradient>
    <linearGradient id="panel" x1="0" y1="0" x2="0" y2="1">
      <stop offset="0%" stop-color="#0a1612"/>
      <stop offset="100%" stop-color="#070d0b"/>
    </linearGradient>

    <filter id="soft-glow" x="-20%" y="-20%" width="140%" height="140%">
      <feGaussianBlur stdDeviation="4" result="blur"/>
      <feMerge><feMergeNode in="blur"/><feMergeNode in="SourceGraphic"/></feMerge>
    </filter>
    <filter id="glow" x="-20%" y="-20%" width="140%" height="140%">
      <feGaussianBlur stdDeviation="2.4" result="b"/>
      <feMerge><feMergeNode in="b"/><feMergeNode in="SourceGraphic"/></feMerge>
    </filter>

    <pattern id="dots" width="22" height="22" patternUnits="userSpaceOnUse">
      <circle cx="1.2" cy="1.2" r="1.2" fill="#143628" opacity=".55"/>
    </pattern>

    <clipPath id="typed-line"><rect x="232" y="288" width="0" height="34"><animate attributeName="width" from="0" to="755" dur="4.2s" begin="1.3s" fill="freeze"/></rect></clipPath>
    <clipPath id="window-clip"><rect x="58" y="54" width="1084" height="412" rx="22"/></clipPath>

    <style>
      .mono { font-family: ui-monospace, SFMono-Regular, Menlo, Consolas, "Liberation Mono", monospace; }

      /* shared atoms */
      .muted { fill: #8b949e; font-size: 14px; }
      .text  { fill: #c9d1d9; }
      .ok    { fill: #22c55e; }
      .bad   { fill: #ef4444; font-weight: 700; }
      .warn  { fill: #fbbf24; }
      .accent{ fill: #34d399; }
      .label { font-size: 13px; fill: #8b949e; letter-spacing: .12em; }

      /* hero */
      .h-tiny   { font-size: 15px; fill: #5eead4; opacity: .75; }
      .h-prompt { font-size: 20px; fill: #34d399; }
      .h-name   { font-size: 68px; font-weight: 800; fill: #f8fafc; }
      .h-role   { font-size: 25px; fill: #34d399; font-weight: 700; }
      .h-typed  { font-size: 24px; fill: #c9d1d9; }
      .h-chip   { font-size: 15px; fill: #d1fae5; font-weight: 700; }
      .h-metric { font-size: 18px; fill: #e2e8f0; font-weight: 700; }
      .h-label  { font-size: 14px; fill: #8b949e; }

      /* body / stats prompts */
      .b-prompt { font-size: 19px; fill: #34d399; font-weight: 700; }
      .b-cmd    { font-size: 19px; fill: #c9d1d9; }
      .key      { font-size: 16px; fill: #5eead4; }
      .val      { font-size: 16px; fill: #f0fdf4; }
      .hdr      { font-size: 14px; fill: #34d399; font-weight: 800; letter-spacing: .22em; }
      .item     { font-size: 15px; fill: #d1fae5; }
      .lang     { font-size: 16px; fill: #d1fae5; font-weight: 600; }
      .pct      { font-size: 16px; fill: #f8fafc; font-weight: 700; }
      .ascii    { font-size: 18px; fill: #34d399; letter-spacing: 1px; font-weight: 700; }
      .ascii-d  { font-size: 18px; fill: #134e3a; letter-spacing: 1px; }

      /* animations */
      .cursor   { fill: #34d399; animation: blink 1s steps(1) infinite; }
      .blink    { animation: blink 1.1s steps(1) infinite; }
      .scan     { animation: scan 8s linear infinite; }
      .matrix   { animation: drift 16s linear infinite; }
      .matrix-s { animation: drift 24s linear infinite reverse; }
      .glitch-a { animation: glitch-a 4.5s steps(1) infinite; fill: #67e8f9; opacity: .32; }
      .glitch-b { animation: glitch-b 5.8s steps(1) infinite; fill: #f472b6; opacity: .22; }
      .pulse    { animation: pulse 2.8s ease-in-out infinite; }
      .pulse-g  { animation: pulse-g 2.4s ease-in-out infinite; }
      .dash     { stroke-dasharray: 16 14; animation: dash 12s linear infinite; }

      @keyframes blink { 0%,48%{opacity:1} 49%,100%{opacity:.12} }
      @keyframes scan  { from{transform:translateY(-260px)} to{transform:translateY(2300px)} }
      @keyframes drift { from{transform:translateY(-80px)} to{transform:translateY(160px)} }
      @keyframes glitch-a { 0%,90%,100%{transform:translate(0,0);opacity:.12} 91%{transform:translate(3px,-1px);opacity:.42} 92%{transform:translate(-4px,1px);opacity:.28} 93%{transform:translate(0,0);opacity:.12} }
      @keyframes glitch-b { 0%,82%,100%{transform:translate(0,0);opacity:.10} 83%{transform:translate(-3px,2px);opacity:.34} 84%{transform:translate(4px,-2px);opacity:.22} 85%{transform:translate(0,0);opacity:.10} }
      @keyframes pulse   { 0%,100%{opacity:.55} 50%{opacity:1} }
      @keyframes pulse-g { 0%,100%{filter:drop-shadow(0 0 2px #34d399)} 50%{filter:drop-shadow(0 0 10px #34d399)} }
      @keyframes dash    { to{stroke-dashoffset:-240} }
    </style>
  </defs>

  <!-- ========== global continuous bg ========== -->
  <rect width="1200" height="2300" fill="#05070a"/>
  <rect width="1200" height="2300" fill="url(#term-bg)"/>
  <rect width="1200" height="2300" fill="url(#dots)" opacity=".22"/>

  <!-- shared grid spanning full height -->
  <g opacity=".18">
    <path d="M0 80 H1200 M0 200 H1200 M0 320 H1200 M0 440 H1200 M0 560 H1200 M0 680 H1200 M0 800 H1200 M0 920 H1200 M0 1040 H1200 M0 1160 H1200 M0 1280 H1200 M0 1400 H1200 M0 1520 H1200 M0 1640 H1200 M0 1760 H1200 M0 1880 H1200 M0 2000 H1200 M0 2120 H1200 M0 2240 H1200" stroke="#0f3a28" stroke-width="1"/>
    <path d="M120 0 V2300 M240 0 V2300 M360 0 V2300 M480 0 V2300 M600 0 V2300 M720 0 V2300 M840 0 V2300 M960 0 V2300 M1080 0 V2300" stroke="#0f3a28" stroke-width="1"/>
  </g>

  <!-- shared travelling scanline -->
  <rect class="scan" x="0" y="-260" width="1200" height="220" fill="url(#pulse-line)" opacity=".15"/>

  <!-- ╔══════════════════════════════════════════════════════════════════╗ -->
  <!-- ║                       HERO  (y 0–520)                            ║ -->
  <!-- ╚══════════════════════════════════════════════════════════════════╝ -->

  <g class="mono matrix" opacity=".32">
    <text x="48" y="40" class="h-tiny">01001010 01110001 01000001 00100000 01100111 01100001 01110100 01100101</text>
    <text x="76" y="98" class="h-tiny">trace: api.spec.ok coverage.delta +13 perf.p95 watch</text>
    <text x="790" y="62" class="h-tiny">assert.strict pass pass pass quarantine=false</text>
    <text x="820" y="150" class="h-tiny">docker logs --tail 80 quality-pipeline</text>
  </g>
  <g class="mono matrix-s" opacity=".20">
    <text x="52" y="442" class="h-tiny">100101 // backend lab // handlers // contracts // load probes</text>
    <text x="748" y="408" class="h-tiny">latency budget: p95 p99 error-rate throughput</text>
    <text x="880" y="480" class="h-tiny">commit graph syncing...</text>
  </g>

  <rect x="58" y="54" width="1084" height="412" rx="22" fill="#07100c" stroke="#164e36" stroke-width="2"/>
  <rect x="58" y="54" width="1084" height="48" rx="22" fill="#0d1612"/>
  <rect x="58" y="88" width="1084" height="14" fill="#0d1612"/>

  <circle cx="88" cy="78" r="7" fill="#ef4444"/>
  <circle cx="112" cy="78" r="7" fill="#f59e0b"/>
  <circle cx="136" cy="78" r="7" fill="#22c55e"/>
  <text x="172" y="84" class="mono muted" font-size="15">quality-shell.exe --profile renatograsso10 --mode terminal</text>

  <g clip-path="url(#window-clip)">
    <path class="dash" d="M86 438 H1114" stroke="#22c55e" stroke-width="2" opacity=".34"/>
  </g>

  <g class="mono" filter="url(#soft-glow)">
    <text x="88" y="142" class="h-prompt">$ ./boot-profile.sh</text>
    <text x="88" y="178" font-size="18" class="text"><tspan class="ok">[ OK ]</tspan><tspan dx="10">automation stack online</tspan><animate attributeName="opacity" values="0;0;1" keyTimes="0;0.08;1" dur="1.6s" fill="freeze"/></text>
    <text x="88" y="210" font-size="18" class="text"><tspan class="ok">[ OK ]</tspan><tspan dx="10">quality gates armed</tspan><animate attributeName="opacity" values="0;0;1" keyTimes="0;0.22;1" dur="1.9s" fill="freeze"/></text>
    <text x="88" y="242" font-size="18" class="text"><tspan class="ok">[ OK ]</tspan><tspan dx="10">backend lab attached</tspan><animate attributeName="opacity" values="0;0;1" keyTimes="0;0.34;1" dur="2.2s" fill="freeze"/></text>
    <text x="88" y="274" font-size="18" class="text"><tspan class="warn">[ RUN ]</tspan><tspan dx="10">typing identity stream...</tspan><animate attributeName="opacity" values="0;0;1" keyTimes="0;0.46;1" dur="2.5s" fill="freeze"/></text>

    <text x="486" y="186" class="h-name glitch-a">Renato Grasso</text>
    <text x="486" y="186" class="h-name glitch-b">Renato Grasso</text>
    <text x="486" y="186" class="h-name">Renato Grasso</text>
    <text x="492" y="226" class="h-role">QA Engineer @Keeggo</text>

    <text x="232" y="313" class="h-prompt">$</text>
    <g clip-path="url(#typed-line)"><text x="264" y="313" class="h-typed">building automation, quality gates, perf probes and backend labs</text></g>
    <rect class="cursor" x="264" y="290" width="13" height="28"><animate attributeName="x" from="264" to="980" dur="4.2s" begin="1.3s" fill="freeze"/></rect>
  </g>

  <g class="mono">
    <g transform="translate(88 326)"><rect width="122" height="32" rx="8" fill="#0f2f22" stroke="#2dd4bf" opacity=".88"/><text x="16" y="21" class="h-chip">Playwright</text></g>
    <g transform="translate(222 326)"><rect width="98" height="32" rx="8" fill="#0f2f22" stroke="#2dd4bf" opacity=".88"/><text x="16" y="21" class="h-chip">Cypress</text></g>
    <g transform="translate(332 326)"><rect width="106" height="32" rx="8" fill="#0f2f22" stroke="#2dd4bf" opacity=".88"/><text x="16" y="21" class="h-chip">Selenium</text></g>
    <g transform="translate(450 326)"><rect width="68" height="32" rx="8" fill="#0f2f22" stroke="#2dd4bf" opacity=".88"/><text x="16" y="21" class="h-chip">k6</text></g>
    <g transform="translate(530 326)"><rect width="126" height="32" rx="8" fill="#0f2f22" stroke="#2dd4bf" opacity=".88"/><text x="16" y="21" class="h-chip">RestAssured</text></g>
    <g transform="translate(668 326)"><rect width="104" height="32" rx="8" fill="#0f2f22" stroke="#2dd4bf" opacity=".88"/><text x="16" y="21" class="h-chip">Docker</text></g>
    <g transform="translate(784 326)"><rect width="46" height="32" rx="8" fill="#0f2f22" stroke="#2dd4bf" opacity=".88"/><text x="16" y="21" class="h-chip">JS</text></g>
    <g transform="translate(842 326)"><rect width="46" height="32" rx="8" fill="#0f2f22" stroke="#2dd4bf" opacity=".88"/><text x="14" y="21" class="h-chip">TS</text></g>
    <g transform="translate(900 326)"><rect width="68" height="32" rx="8" fill="#0f2f22" stroke="#2dd4bf" opacity=".88"/><text x="15" y="21" class="h-chip">Java</text></g>
    <g transform="translate(980 326)"><rect width="44" height="32" rx="8" fill="#0f2f22" stroke="#2dd4bf" opacity=".88"/><text x="17" y="21" class="h-chip">C</text></g>
  </g>

  <g class="mono" transform="translate(88 388)">
    <text x="0" y="0" class="h-label">automation</text>
    <rect x="0" y="12" width="245" height="10" rx="5" fill="#10251c"/>
    <rect x="0" y="12" width="0" height="10" rx="5" fill="#34d399"><animate attributeName="width" from="0" to="224" dur="1.2s" begin="1.1s" fill="freeze"/></rect>
    <text x="262" y="22" class="h-metric">91%</text>
    <text x="380" y="0" class="h-label">api + perf</text>
    <rect x="380" y="12" width="245" height="10" rx="5" fill="#10251c"/>
    <rect x="380" y="12" width="0" height="10" rx="5" fill="#2dd4bf"><animate attributeName="width" from="0" to="205" dur="1.4s" begin="1.4s" fill="freeze"/></rect>
    <text x="642" y="22" class="h-metric">84%</text>
    <text x="760" y="0" class="h-label">backend lab</text>
    <rect x="760" y="12" width="245" height="10" rx="5" fill="#10251c"/>
    <rect x="760" y="12" width="0" height="10" rx="5" fill="#a7f3d0"><animate attributeName="width" from="0" to="176" dur="1.6s" begin="1.7s" fill="freeze"/></rect>
    <text x="1022" y="22" class="h-metric">72%</text>
  </g>

  <g class="mono pulse" opacity=".7">
    <circle cx="1088" cy="126" r="5" fill="#22c55e"/>
    <text x="1102" y="132" class="h-label">LIVE</text>
  </g>

  <!-- ============ scrollback continuation divider ============ -->
  <g class="mono">
    <line x1="92" y1="510" x2="540" y2="510" stroke="#1f3b2c" stroke-dasharray="2 6"/>
    <text x="556" y="515" class="muted" font-size="13" letter-spacing="2">scroll · output continues</text>
    <line x1="800" y1="510" x2="1108" y2="510" stroke="#1f3b2c" stroke-dasharray="2 6"/>
  </g>

  <!-- ╔══════════════════════════════════════════════════════════════════╗ -->
  <!-- ║                       BODY  (y 540–1500)                         ║ -->
  <!-- ╚══════════════════════════════════════════════════════════════════╝ -->

  <g transform="translate(0 540)">
    <!-- whoami -->
    <g class="mono">
      <text x="92" y="60" class="b-prompt">guest@grasso</text>
      <text x="220" y="60" class="b-cmd">:~/profile$ whoami --verbose</text>
    </g>
    <g class="mono">
      <rect x="92" y="78" width="1016" height="218" rx="10" fill="url(#panel)" stroke="#1f3b2c"/>
      <rect x="92" y="78" width="4" height="218" fill="#34d399"/>
      <g transform="translate(118 108)">
        <text x="0" y="0" class="key">name</text>     <text x="160" y="0" class="val">Renato Grasso</text>
        <text x="0" y="28" class="key">role</text>    <text x="160" y="28" class="val">QA Engineer</text> <text x="318" y="28" class="muted">@Keeggo</text>
        <text x="0" y="56" class="key">location</text><text x="160" y="56" class="val">São Vicente / SP — Brazil</text>
        <text x="0" y="84" class="key">timezone</text><text x="160" y="84" class="val">UTC-3</text>
        <text x="0" y="112" class="key">status</text> <text x="160" y="112" class="val">breaking things on purpose, then fixing them</text>
        <text x="0" y="140" class="key">mission</text><text x="160" y="140" class="val">ship software that does not page anyone at 3am</text>
        <text x="0" y="168" class="key">contact</text><text x="160" y="168" class="val">renatograsso95@gmail.com</text>
      </g>
    </g>

    <!-- stack -->
    <g class="mono">
      <text x="92" y="346" class="b-prompt">guest@grasso</text>
      <text x="220" y="346" class="b-cmd">:~/profile$ ls -la stack/</text>
      <text x="510" y="346" class="muted">// 4 directories, 19 tools</text>
    </g>
    <g class="mono" transform="translate(92 362)">
      <g transform="translate(0 0)">
        <rect x="0" y="0" width="244" height="220" rx="10" fill="url(#panel)" stroke="#1f3b2c"/>
        <rect x="0" y="0" width="244" height="32" rx="10" fill="#0f2f22"/>
        <rect x="0" y="22" width="244" height="10" fill="#0f2f22"/>
        <text x="16" y="22" class="hdr">▌ AUTOMATION</text>
        <text x="222" y="22" class="muted" text-anchor="end">04</text>
        <g transform="translate(20 60)">
          <text x="0" y="0" class="accent">▸</text> <text x="22" y="0" class="item">playwright</text>
          <text x="0" y="28" class="accent">▸</text> <text x="22" y="28" class="item">cypress</text>
          <text x="0" y="56" class="accent">▸</text> <text x="22" y="56" class="item">selenium</text>
          <text x="0" y="84" class="accent">▸</text> <text x="22" y="84" class="item">appium</text>
        </g>
        <text x="20" y="200" class="muted">e2e · ui · mobile</text>
      </g>
      <g transform="translate(258 0)">
        <rect x="0" y="0" width="244" height="220" rx="10" fill="url(#panel)" stroke="#1f3b2c"/>
        <rect x="0" y="0" width="244" height="32" rx="10" fill="#0f2f22"/>
        <rect x="0" y="22" width="244" height="10" fill="#0f2f22"/>
        <text x="16" y="22" class="hdr">▌ API / PERF</text>
        <text x="222" y="22" class="muted" text-anchor="end">04</text>
        <g transform="translate(20 60)">
          <text x="0" y="0" class="accent">▸</text> <text x="22" y="0" class="item">restassured</text>
          <text x="0" y="28" class="accent">▸</text> <text x="22" y="28" class="item">karate dsl</text>
          <text x="0" y="56" class="accent">▸</text> <text x="22" y="56" class="item">postman</text>
          <text x="0" y="84" class="accent">▸</text> <text x="22" y="84" class="item">k6</text>
        </g>
        <text x="20" y="200" class="muted">contracts · load · slo</text>
      </g>
      <g transform="translate(516 0)">
        <rect x="0" y="0" width="244" height="220" rx="10" fill="url(#panel)" stroke="#1f3b2c"/>
        <rect x="0" y="0" width="244" height="32" rx="10" fill="#0f2f22"/>
        <rect x="0" y="22" width="244" height="10" fill="#0f2f22"/>
        <text x="16" y="22" class="hdr">▌ LANGUAGES</text>
        <text x="222" y="22" class="muted" text-anchor="end">06</text>
        <g transform="translate(20 60)">
          <text x="0" y="0"   class="accent">▸</text> <text x="22" y="0"   class="item">typescript</text>
          <text x="0" y="24"  class="accent">▸</text> <text x="22" y="24"  class="item">javascript</text>
          <text x="0" y="48"  class="accent">▸</text> <text x="22" y="48"  class="item">java</text>
          <text x="0" y="72"  class="accent">▸</text> <text x="22" y="72"  class="item">python</text>
          <text x="0" y="96"  class="accent">▸</text> <text x="22" y="96"  class="item">ruby</text>
          <text x="0" y="120" class="accent">▸</text> <text x="22" y="120" class="item">c</text>
        </g>
      </g>
      <g transform="translate(774 0)">
        <rect x="0" y="0" width="244" height="220" rx="10" fill="url(#panel)" stroke="#1f3b2c"/>
        <rect x="0" y="0" width="244" height="32" rx="10" fill="#0f2f22"/>
        <rect x="0" y="22" width="244" height="10" fill="#0f2f22"/>
        <text x="16" y="22" class="hdr">▌ DELIVERY</text>
        <text x="222" y="22" class="muted" text-anchor="end">05</text>
        <g transform="translate(20 60)">
          <text x="0" y="0"   class="accent">▸</text> <text x="22" y="0"   class="item">docker</text>
          <text x="0" y="24"  class="accent">▸</text> <text x="22" y="24"  class="item">jenkins</text>
          <text x="0" y="48"  class="accent">▸</text> <text x="22" y="48"  class="item">azure devops</text>
          <text x="0" y="72"  class="accent">▸</text> <text x="22" y="72"  class="item">gitlab ci</text>
          <text x="0" y="96"  class="accent">▸</text> <text x="22" y="96"  class="item">gh actions</text>
        </g>
        <text x="20" y="200" class="muted">ci · cd · containers</text>
      </g>
    </g>

    <!-- focus diff -->
    <g class="mono">
      <text x="92" y="644" class="b-prompt">guest@grasso</text>
      <text x="220" y="644" class="b-cmd">:~/profile$ git diff --focus HEAD~1</text>
    </g>
    <g class="mono">
      <rect x="92" y="662" width="1016" height="200" rx="10" fill="url(#panel)" stroke="#1f3b2c"/>
      <rect x="92" y="662" width="4" height="200" fill="#22c55e"/>
      <g transform="translate(118 692)" class="pulse-g">
        <text x="0" y="0"   filter="url(#glow)"><tspan class="ok" font-weight="700">+</tspan>  <tspan class="text">test automation that catches regressions before deploy</tspan></text>
        <text x="0" y="26"  filter="url(#glow)"><tspan class="ok" font-weight="700">+</tspan>  <tspan class="text">API, mobile and web quality pipelines end-to-end</tspan></text>
        <text x="0" y="52"  filter="url(#glow)"><tspan class="ok" font-weight="700">+</tspan>  <tspan class="text">performance budgets and SLO thinking with k6</tspan></text>
        <text x="0" y="78"  filter="url(#glow)"><tspan class="ok" font-weight="700">+</tspan>  <tspan class="text">backend labs: APIs, containers, observability</tspan></text>
        <text x="0" y="104" class="muted">─────────────────────────────────────────────────────────</text>
        <text x="0" y="130" filter="url(#glow)"><tspan class="bad">-</tspan>  <tspan class="text">flaky tests, manual smoke runs, "works on my machine"</tspan></text>
      </g>
    </g>

    <!-- telemetry intro -->
    <g class="mono">
      <text x="92" y="912" class="b-prompt">guest@grasso</text>
      <text x="220" y="912" class="b-cmd">:~/profile$ ./telemetry --live</text>
      <text x="560" y="912" class="warn">⟶</text>
      <text x="588" y="912" class="muted">streaming below</text>
      <rect class="blink" x="730" y="896" width="11" height="20" fill="#34d399"/>
    </g>
  </g>

  <!-- between body and stats -->
  <g class="mono">
    <line x1="92" y1="1530" x2="540" y2="1530" stroke="#1f3b2c" stroke-dasharray="2 6"/>
    <text x="556" y="1535" class="muted" font-size="13" letter-spacing="2">scroll · output continues</text>
    <line x1="800" y1="1530" x2="1108" y2="1530" stroke="#1f3b2c" stroke-dasharray="2 6"/>
  </g>

  <!-- ╔══════════════════════════════════════════════════════════════════╗ -->
  <!-- ║                       STATS  (y 1560–2240)                       ║ -->
  <!-- ╚══════════════════════════════════════════════════════════════════╝ -->

  <g transform="translate(0 1560)">
    <!-- neofetch prompt -->
    <g class="mono">
      <text x="92" y="40" class="b-prompt">guest@grasso</text>
      <text x="220" y="40" class="b-cmd">:~/profile$ neofetch --user renatograsso10</text>
    </g>

    <!-- neofetch panel -->
    <g class="mono">
      <rect x="92" y="58" width="1016" height="262" rx="10" fill="url(#panel)" stroke="#1f3b2c"/>
      <rect x="92" y="58" width="4" height="262" fill="#34d399"/>
      <g transform="translate(120 96)">
        <text x="0" y="0"   class="ascii"> ▄▄▄▄▄    ▄▄▄▄▄</text>
        <text x="0" y="22"  class="ascii">██████   ██████</text>
        <text x="0" y="44"  class="ascii">██  ██  ██</text>
        <text x="0" y="66"  class="ascii">█████   ██  ▄▄▄</text>
        <text x="0" y="88"  class="ascii">██  ██  ██   ██</text>
        <text x="0" y="110" class="ascii">██   ██  ██████</text>
        <text x="0" y="132" class="ascii-d">─────────────────</text>
        <text x="0" y="154" class="accent" font-size="16" font-weight="700">renatograsso10</text>
        <text x="0" y="176" class="muted">qa engineer · brazil</text>
      </g>
      <line x1="430" y1="90" x2="430" y2="300" stroke="#1f3b2c" stroke-width="1" stroke-dasharray="4 4"/>
      <g transform="translate(470 96)">
        <text x="0" y="0"   class="key">os</text>           <text x="170" y="0"   class="val">Windows 11 · WSL2 · Linux</text>
        <text x="0" y="26"  class="key">shell</text>        <text x="170" y="26"  class="val">bash · zsh · pwsh</text>
        <text x="0" y="52"  class="key">editor</text>       <text x="170" y="52"  class="val">vscode · vim · cursor</text>
        <text x="0" y="78"  class="key">uptime</text>       <text x="170" y="78"  class="val">4 years on github</text>
        <text x="0" y="104" class="key">repos</text>        <text x="170" y="104" class="val">12 public</text>
        <text x="0" y="130" class="key">followers</text>    <text x="170" y="130" class="val">4</text> <text x="220" y="130" class="muted">/  following 21</text>
        <text x="0" y="156" class="key">commits.12mo</text> <text x="170" y="156" class="val">21</text> <text x="220" y="156" class="muted">across 5 repos</text>
        <text x="0" y="182" class="key">pull-requests</text><text x="170" y="182" class="val">3</text> <text x="220" y="182" class="muted">opened · 2 merged</text>
        <text x="0" y="208" class="key">issues</text>       <text x="170" y="208" class="val">7</text> <text x="220" y="208" class="muted">filed · 8 total</text>
      </g>
    </g>

    <!-- langs prompt -->
    <g class="mono">
      <text x="92" y="370" class="b-prompt">guest@grasso</text>
      <text x="220" y="370" class="b-cmd">:~/profile$ ./langs --top --by=size</text>
      <text x="600" y="370" class="muted">// ranked by bytes across all repos</text>
    </g>

    <!-- langs panel -->
    <g class="mono">
      <rect x="92" y="388" width="1016" height="222" rx="10" fill="url(#panel)" stroke="#1f3b2c"/>
      <rect x="92" y="388" width="4" height="222" fill="#22c55e"/>
      <g transform="translate(122 418)">
        <text x="0" y="14" class="lang">C</text>
        <text x="170" y="14" class="muted">1.69 MB</text>
        <rect x="280" y="2" width="600" height="14" rx="4" fill="#0f1f1a"/>
        <rect x="280" y="2" width="0" height="14" rx="4" fill="#6366f1"><animate attributeName="width" from="0" to="426" dur="1.2s" begin="0.4s" fill="freeze"/></rect>
        <text x="900" y="14" class="pct">71.6%</text>

        <text x="0" y="44" class="lang">TypeScript</text>
        <text x="170" y="44" class="muted">311 KB</text>
        <rect x="280" y="32" width="600" height="14" rx="4" fill="#0f1f1a"/>
        <rect x="280" y="32" width="0" height="14" rx="4" fill="#3178c6"><animate attributeName="width" from="0" to="79" dur="1.0s" begin="0.6s" fill="freeze"/></rect>
        <text x="900" y="44" class="pct">13.2%</text>

        <text x="0" y="74" class="lang">JavaScript</text>
        <text x="170" y="74" class="muted">263 KB</text>
        <rect x="280" y="62" width="600" height="14" rx="4" fill="#0f1f1a"/>
        <rect x="280" y="62" width="0" height="14" rx="4" fill="#facc15"><animate attributeName="width" from="0" to="67" dur="1.0s" begin="0.8s" fill="freeze"/></rect>
        <text x="900" y="74" class="pct">11.1%</text>

        <text x="0" y="104" class="lang">Go</text>
        <text x="170" y="104" class="muted">45 KB</text>
        <rect x="280" y="92" width="600" height="14" rx="4" fill="#0f1f1a"/>
        <rect x="280" y="92" width="0" height="14" rx="4" fill="#0ea5e9"><animate attributeName="width" from="0" to="12" dur="1.0s" begin="1.0s" fill="freeze"/></rect>
        <text x="900" y="104" class="pct">1.9%</text>

        <text x="0" y="134" class="lang">Python</text>
        <text x="170" y="134" class="muted">25 KB</text>
        <rect x="280" y="122" width="600" height="14" rx="4" fill="#0f1f1a"/>
        <rect x="280" y="122" width="0" height="14" rx="4" fill="#34d399"><animate attributeName="width" from="0" to="7" dur="1.0s" begin="1.2s" fill="freeze"/></rect>
        <text x="900" y="134" class="pct">1.1%</text>

        <text x="0" y="164" class="lang">Other</text>
        <text x="170" y="164" class="muted">25 KB</text>
        <rect x="280" y="152" width="600" height="14" rx="4" fill="#0f1f1a"/>
        <rect x="280" y="152" width="0" height="14" rx="4" fill="#fb923c"><animate attributeName="width" from="0" to="6" dur="1.0s" begin="1.4s" fill="freeze"/></rect>
        <text x="900" y="164" class="pct">1.1%</text>

        <text x="0" y="194" class="muted">▌ Rust · Shell · CSS · Dockerfile · Makefile · HTML · PowerShell · Nix · PLpgSQL</text>
      </g>
    </g>
  </g>

  <!-- ╔══════════════════════════════════════════════════════════════════╗ -->
  <!-- ║                  END OF BUFFER  (y 2240–2300)                    ║ -->
  <!-- ╚══════════════════════════════════════════════════════════════════╝ -->

  <g class="mono">
    <line x1="92" y1="2250" x2="500" y2="2250" stroke="#1f3b2c" stroke-dasharray="2 6"/>
    <text x="516" y="2255" class="accent" font-size="13" letter-spacing="2">▌ end of buffer · exit 0</text>
    <circle cx="780" cy="2251" r="3" fill="#22c55e" class="blink"/>
    <line x1="800" y1="2250" x2="1108" y2="2250" stroke="#1f3b2c" stroke-dasharray="2 6"/>
  </g>
</svg>
